<svg xmlns="http://www.w3.org/2000/svg" width="459.512" height="447.334" viewBox="0 0 459.512 447.334">
  <g id="Group_3" data-name="Group 3" transform="translate(-1014.5 -373.5)">
    <g id="cart" transform="translate(1019 371.972)">
      <g id="Group_2" data-name="Group 2">
        <g id="Group_1" data-name="Group 1">
          <path id="Path_1" data-name="Path 1" d="M143.673,350.322a47.02,47.02,0,1,0,47.02,47.02A47.02,47.02,0,0,0,143.673,350.322Zm0,73.143a26.122,26.122,0,1,1,26.122-26.122A26.122,26.122,0,0,1,143.673,423.465Z" fill="#fff" stroke="#fff" stroke-width="9"/>
          <path id="Path_2" data-name="Path 2" d="M342.2,350.322a47.02,47.02,0,1,0,47.02,47.02A47.02,47.02,0,0,0,342.2,350.322Zm0,73.143a26.122,26.122,0,1,1,26.122-26.122A26.122,26.122,0,0,1,342.2,423.465Z" fill="#fff" stroke="#fff" stroke-width="9"/>
          <path id="Path_3" data-name="Path 3" d="M448.261,76.037a13.064,13.064,0,0,0-8.359-4.18l-340.114-4.7-9.4-28.735A48.066,48.066,0,0,0,45.453,6.028h-35a10.449,10.449,0,1,0,0,20.9h35A27.169,27.169,0,0,1,70.531,45.212l66.351,200.1-5.224,12.016a50.154,50.154,0,0,0,4.7,45.453,48.588,48.588,0,0,0,39.184,21.943H378.777a10.449,10.449,0,1,0,0-20.9H175.543A26.646,26.646,0,0,1,153.6,291.285a28.733,28.733,0,0,1-2.612-25.078l4.18-9.4,219.951-22.988a57.47,57.47,0,0,0,49.633-43.886L449.83,84.917A8.882,8.882,0,0,0,448.261,76.037ZM404.376,185.228a35.526,35.526,0,0,1-31.869,27.69L155.168,235.383,106.58,88.053l320.261,4.7Z" fill="#fff" stroke="#fff" stroke-width="9"/>
        </g>
      </g>
    </g>
  </g>
</svg>
