<?xml version="1.0" encoding="UTF-8" standalone="no"?>
<!-- Created with Inkscape (http://www.inkscape.org/) -->

<svg
   xmlns:dc="http://purl.org/dc/elements/1.1/"
   xmlns:cc="http://creativecommons.org/ns#"
   xmlns:rdf="http://www.w3.org/1999/02/22-rdf-syntax-ns#"
   xmlns:svg="http://www.w3.org/2000/svg"
   xmlns="http://www.w3.org/2000/svg"
   xmlns:sodipodi="http://sodipodi.sourceforge.net/DTD/sodipodi-0.dtd"
   xmlns:inkscape="http://www.inkscape.org/namespaces/inkscape"
   width="250.77904"
   height="124.8567"
   id="svg2"
   version="1.1"
   inkscape:version="0.48.0 r9654"
   sodipodi:docname="New document 1">
  <defs
     id="defs4">
    <filter
       inkscape:collect="always"
       id="filter3791"
       x="-0.048327737"
       width="1.0966555"
       y="-0.13086811"
       height="1.2617362"
       color-interpolation-filters="sRGB">
      <feGaussianBlur
         inkscape:collect="always"
         stdDeviation="2.2046912"
         id="feGaussianBlur3793" />
    </filter>
    <filter
       inkscape:collect="always"
       id="filter3807"
       x="-0.022060327"
       width="1.0441207"
       y="-0.13719672"
       height="1.2743934"
       color-interpolation-filters="sRGB">
      <feGaussianBlur
         inkscape:collect="always"
         stdDeviation="2.3145086"
         id="feGaussianBlur3809" />
    </filter>
  </defs>
  <sodipodi:namedview
     id="base"
     pagecolor="#ffffff"
     bordercolor="#666666"
     borderopacity="1.0"
     inkscape:pageopacity="0.0"
     inkscape:pageshadow="2"
     inkscape:zoom="1.3524272"
     inkscape:cx="3.5784643"
     inkscape:cy="-14.408552"
     inkscape:document-units="px"
     inkscape:current-layer="layer1"
     showgrid="false"
     fit-margin-top="0"
     fit-margin-left="0"
     fit-margin-right="0"
     fit-margin-bottom="0"
     inkscape:window-width="1280"
     inkscape:window-height="729"
     inkscape:window-x="0"
     inkscape:window-y="24"
     inkscape:window-maximized="1" />
  <metadata
     id="metadata7">
    <rdf:RDF>
      <cc:Work
         rdf:about="">
        <dc:format>image/svg+xml</dc:format>
        <dc:type
           rdf:resource="http://purl.org/dc/dcmitype/StillImage" />
        <dc:title></dc:title>
      </cc:Work>
    </rdf:RDF>
  </metadata>
  <g
     inkscape:label="Layer 1"
     inkscape:groupmode="layer"
     id="layer1"
     transform="translate(-44.984163,-51.668351)">
    <g
       id="g3873"
       transform="matrix(0.47964432,0,0,0.48558753,23.400169,26.58472)">
      <rect
         ry="18.045113"
         y="55.595257"
         x="48.943966"
         height="249.24812"
         width="249.03326"
         id="rect3755"
         style="fill:none;stroke:#FF6347;stroke-width:7.8913331;stroke-miterlimit:4;stroke-opacity:1;stroke-dasharray:none" />
      <path
         transform="matrix(0.78879311,0,0,0.78947369,-47.401476,-114.31474)"
         d="m 374.28571,366.64789 c 0,52.07256 -42.21315,94.28571 -94.28571,94.28571 -52.07256,0 -94.28571,-42.21315 -94.28571,-94.28571 0,-52.07256 42.21315,-94.28572 94.28571,-94.28572 52.07256,0 94.28571,42.21316 94.28571,94.28572 z"
         sodipodi:ry="94.285713"
         sodipodi:rx="94.285713"
         sodipodi:cy="366.64789"
         sodipodi:cx="280"
         id="path3757"
         style="fill:#FF6347;stroke:none"
         sodipodi:type="arc" />
      <g
         id="text3759"
         style="font-size:31.56533241px;font-style:normal;font-weight:normal;line-height:125%;letter-spacing:0px;word-spacing:0px;fill:#FF6347;fill-opacity:1;stroke:none;font-family:Sans"
         transform="matrix(0.99956887,0,0,1.0004313,-3.6970567,-5.1758795)">
        <path
           inkscape:connector-curvature="0"
           id="path3840"
           style="font-size:44.19146729px;font-variant:normal;font-weight:bold;font-stretch:normal;fill:#FF6347;font-family:Ubuntu;-inkscape-font-specification:Ubuntu Bold"
           d="m 142.53233,294.56595 c -1.20791,-2.5631 -2.40108,-5.22932 -3.57951,-7.99866 -1.17845,-2.76932 -2.29796,-5.50919 -3.35855,-8.21961 -1.0606,-2.71039 -2.04754,-5.30295 -2.96083,-7.7777 -0.88383,-2.47469 -1.64981,-4.68427 -2.29796,-6.62872 l 7.60094,0 c 0.58921,1.76769 1.22262,3.68265 1.90023,5.74489 0.70705,2.03283 1.41412,4.06564 2.12119,6.09842 0.73651,2.03283 1.44357,3.97725 2.12119,5.83328 0.67759,1.85605 1.311,3.46167 1.90023,4.81687 0.55975,-1.3552 1.17843,-2.96082 1.85605,-4.81687 0.70704,-1.85603 1.4141,-3.80045 2.12119,-5.83328 0.7365,-2.03278 1.44356,-4.06559 2.12119,-6.09842 0.70704,-2.06224 1.35518,-3.9772 1.94442,-5.74489 l 7.33578,0 c -0.67763,1.94445 -1.45834,4.15403 -2.34214,6.62872 -0.88386,2.47475 -1.85607,5.06731 -2.91664,7.7777 -1.06062,2.71042 -2.18014,5.45029 -3.35855,8.21961 -1.17846,2.76934 -2.37163,5.43556 -3.57951,7.99866 l -6.62872,0" />
        <path
           inkscape:connector-curvature="0"
           id="path3842"
           style="font-size:44.19146729px;font-variant:normal;font-weight:bold;font-stretch:normal;fill:#FF6347;font-family:Ubuntu;-inkscape-font-specification:Ubuntu Bold"
           d="m 165.36413,294.56595 0,-30.62469 20.6816,0 0,5.78908 -13.78773,0 0,6.01004 12.24103,0 0,5.65651 -12.24103,0 0,7.37998 14.80414,0 0,5.78908 -21.69801,0" />
        <path
           inkscape:connector-curvature="0"
           id="path3844"
           style="font-size:44.19146729px;font-variant:normal;font-weight:bold;font-stretch:normal;fill:#FF6347;font-family:Ubuntu;-inkscape-font-specification:Ubuntu Bold"
           d="m 207.05739,269.24424 c -3.21126,2e-5 -5.53867,0.89858 -6.98225,2.69568 -1.41413,1.76768 -2.1212,4.19821 -2.12119,7.29159 -1e-5,1.50252 0.17676,2.87246 0.5303,4.10981 0.35352,1.20791 0.88382,2.25377 1.59089,3.13759 0.70705,0.88384 1.59088,1.57617 2.65149,2.077 1.06058,0.47138 2.29794,0.70707 3.71208,0.70706 0.76597,1e-5 1.41411,-0.0147 1.94443,-0.0442 0.55974,-0.0294 1.04584,-0.0884 1.45832,-0.17676 l 0,-10.65015 6.89387,0 0,15.15767 c -0.82494,0.32408 -2.15068,0.66288 -3.97724,1.01641 -1.8266,0.38299 -4.08036,0.57449 -6.76129,0.57449 -2.29797,0 -4.3897,-0.35353 -6.27519,-1.0606 -1.85605,-0.70706 -3.44694,-1.73819 -4.77268,-3.0934 -1.32575,-1.3552 -2.35688,-3.01974 -3.0934,-4.99364 -0.70707,-1.97387 -1.0606,-4.22763 -1.0606,-6.76129 0,-2.56309 0.39773,-4.83158 1.19317,-6.80549 0.79545,-1.97386 1.8855,-3.6384 3.27017,-4.99363 1.38466,-1.38464 3.00501,-2.4305 4.86106,-3.1376 1.88549,-0.70703 3.88884,-1.06056 6.01004,-1.06059 1.44357,3e-5 2.73985,0.10314 3.88885,0.30934 1.17842,0.1768 2.18009,0.39775 3.00502,0.66287 0.85435,0.23572 1.54668,0.48614 2.077,0.75126 0.55973,0.26517 0.95746,0.4714 1.19317,0.61868 l -1.98861,5.52393 c -0.94278,-0.50081 -2.03284,-0.928 -3.27017,-1.28155 -1.20792,-0.38297 -2.53367,-0.57447 -3.97724,-0.57449" />
      </g>
      <rect
         style="fill:none;stroke:#FF6347;stroke-width:7.8913331;stroke-miterlimit:4;stroke-opacity:1;stroke-dasharray:none"
         id="rect3771"
         width="249.03326"
         height="249.24812"
         x="314.87994"
         y="55.595253"
         ry="18.045113" />
      <path
         sodipodi:type="arc"
         style="fill:#FF6347;stroke:none"
         id="path3773"
         sodipodi:cx="280"
         sodipodi:cy="366.64789"
         sodipodi:rx="94.285713"
         sodipodi:ry="94.285713"
         d="m 374.28571,366.64789 c 0,52.07256 -42.21315,94.28571 -94.28571,94.28571 -52.07256,0 -94.28571,-42.21315 -94.28571,-94.28571 0,-52.07256 42.21315,-94.28572 94.28571,-94.28572 52.07256,0 94.28571,42.21316 94.28571,94.28572 z"
         transform="matrix(0.78879311,0,0,0.78947369,218.53449,-114.31474)" />
      <g
         transform="matrix(0.78879311,0,0,0.78947369,254.06563,-279.75321)"
         style="font-size:40px;font-style:normal;font-weight:normal;line-height:125%;letter-spacing:0px;word-spacing:0px;fill:#FF6347;fill-opacity:1;stroke:none;font-family:Sans"
         id="text3775">
        <path
           d="m 132.28218,720.93353 c -2.50136,-4.44266 -5.20803,-8.82932 -8.12,-13.16 -2.91202,-4.33065 -6.01069,-8.41864 -9.296,-12.264 l 0,25.424 -8.624,0 0,-38.808 7.112,0 c 1.23198,1.23204 2.59465,2.74404 4.088,4.536 1.49331,1.79204 3.00531,3.7147 4.536,5.768 1.56797,2.01603 3.11731,4.12536 4.648,6.328 1.53064,2.16536 2.96797,4.25602 4.312,6.272 l 0,-22.904 8.68,0 0,38.808 -7.336,0"
           style="font-size:56px;font-variant:normal;font-weight:bold;font-stretch:normal;fill:#FF6347;font-family:Ubuntu;-inkscape-font-specification:Ubuntu Bold"
           id="path3847"
           inkscape:connector-curvature="0" />
        <path
           d="m 155.9063,701.50153 c -10e-6,1.90402 0.22399,3.62135 0.672,5.152 0.48532,1.53068 1.15732,2.85601 2.016,3.976 0.89599,1.08268 1.97865,1.92268 3.248,2.52 1.26932,0.59734 2.72531,0.89601 4.368,0.896 1.60531,10e-6 3.04264,-0.29866 4.312,-0.896 1.30664,-0.59732 2.38931,-1.43732 3.248,-2.52 0.89597,-1.11999 1.56797,-2.44532 2.016,-3.976 0.4853,-1.53065 0.72797,-3.24798 0.728,-5.152 -3e-5,-1.90398 -0.2427,-3.62131 -0.728,-5.152 -0.44803,-1.56797 -1.12003,-2.8933 -2.016,-3.976 -0.85869,-1.11997 -1.94136,-1.97863 -3.248,-2.576 -1.26936,-0.5973 -2.70669,-0.89597 -4.312,-0.896 -1.64269,3e-5 -3.09868,0.31737 -4.368,0.952 -1.26935,0.59737 -2.35201,1.45603 -3.248,2.576 -0.85868,1.0827 -1.53068,2.40803 -2.016,3.976 -0.44801,1.53069 -0.67201,3.22936 -0.672,5.096 m 29.624,0 c -4e-5,3.32269 -0.50404,6.25335 -1.512,8.792 -0.9707,2.50134 -2.3147,4.61068 -4.032,6.328 -1.71737,1.68001 -3.7707,2.94934 -6.16,3.808 -2.35203,0.85867 -4.89069,1.288 -7.616,1.288 -2.65068,0 -5.15202,-0.42933 -7.504,-1.288 -2.35201,-0.85866 -4.40534,-2.12799 -6.16,-3.808 -1.75467,-1.71732 -3.136,-3.82666 -4.144,-6.328 -1.008,-2.53865 -1.512,-5.46931 -1.512,-8.792 0,-3.32264 0.52266,-6.23464 1.568,-8.736 1.04533,-2.53863 2.44533,-4.66663 4.2,-6.384 1.79199,-1.71729 3.84532,-3.00529 6.16,-3.864 2.35198,-0.85862 4.81598,-1.28796 7.392,-1.288 2.65064,4e-5 5.15197,0.42938 7.504,1.288 2.35197,0.85871 4.4053,2.14671 6.16,3.864 1.75463,1.71737 3.13596,3.84537 4.144,6.384 1.00796,2.50136 1.51196,5.41336 1.512,8.736"
           style="font-size:56px;font-variant:normal;font-weight:bold;font-stretch:normal;fill:#FF6347;font-family:Ubuntu;-inkscape-font-specification:Ubuntu Bold"
           id="path3849"
           inkscape:connector-curvature="0" />
        <path
           d="m 218.7978,720.93353 c -2.50136,-4.44266 -5.20802,-8.82932 -8.12,-13.16 -2.91202,-4.33065 -6.01068,-8.41864 -9.296,-12.264 l 0,25.424 -8.624,0 0,-38.808 7.112,0 c 1.23199,1.23204 2.59465,2.74404 4.088,4.536 1.49332,1.79204 3.00532,3.7147 4.536,5.768 1.56798,2.01603 3.11731,4.12536 4.648,6.328 1.53064,2.16536 2.96797,4.25602 4.312,6.272 l 0,-22.904 8.68,0 0,38.808 -7.336,0"
           style="font-size:56px;font-variant:normal;font-weight:bold;font-stretch:normal;fill:#FF6347;font-family:Ubuntu;-inkscape-font-specification:Ubuntu Bold"
           id="path3851"
           inkscape:connector-curvature="0" />
        <path
           d="m 232.00593,700.43753 16.24,0 0,7.56 -16.24,0 0,-7.56"
           style="font-size:56px;font-variant:normal;font-weight:bold;font-stretch:normal;fill:#FF6347;font-family:Ubuntu;-inkscape-font-specification:Ubuntu Bold"
           id="path3853"
           inkscape:connector-curvature="0" />
        <path
           d="m 264.01255,720.93353 c -1.53068,-3.24799 -3.04268,-6.62666 -4.536,-10.136 -1.49334,-3.50932 -2.91201,-6.98131 -4.256,-10.416 -1.344,-3.43464 -2.59467,-6.71997 -3.752,-9.856 -1.12,-3.13596 -2.09067,-5.93596 -2.912,-8.4 l 9.632,0 c 0.74666,2.24004 1.54932,4.6667 2.408,7.28 0.89599,2.57603 1.79199,5.15203 2.688,7.728 0.93332,2.57602 1.82932,5.04002 2.688,7.392 0.85865,2.35202 1.66132,4.38668 2.408,6.104 0.70931,-1.71732 1.49331,-3.75198 2.352,-6.104 0.89598,-2.35198 1.79198,-4.81598 2.688,-7.392 0.93331,-2.57597 1.82931,-5.15197 2.688,-7.728 0.89597,-2.6133 1.71731,-5.03996 2.464,-7.28 l 9.296,0 c -0.8587,2.46404 -1.84804,5.26404 -2.968,8.4 -1.12003,3.13603 -2.35203,6.42136 -3.696,9.856 -1.34403,3.43469 -2.7627,6.90668 -4.256,10.416 -1.49336,3.50934 -3.00536,6.88801 -4.536,10.136 l -8.4,0"
           style="font-size:56px;font-variant:normal;font-weight:bold;font-stretch:normal;fill:#FF6347;font-family:Ubuntu;-inkscape-font-specification:Ubuntu Bold"
           id="path3855"
           inkscape:connector-curvature="0" />
        <path
           d="m 292.9453,720.93353 0,-38.808 26.208,0 0,7.336 -17.472,0 0,7.616 15.512,0 0,7.168 -15.512,0 0,9.352 18.76,0 0,7.336 -27.496,0"
           style="font-size:56px;font-variant:normal;font-weight:bold;font-stretch:normal;fill:#FF6347;font-family:Ubuntu;-inkscape-font-specification:Ubuntu Bold"
           id="path3857"
           inkscape:connector-curvature="0" />
        <path
           d="m 345.77955,688.84553 c -4.06935,3e-5 -7.01868,1.1387 -8.848,3.416 -1.79201,2.24003 -2.68801,5.32003 -2.688,9.24 -1e-5,1.90402 0.22399,3.64002 0.672,5.208 0.44799,1.53068 1.11999,2.85601 2.016,3.976 0.89599,1.12001 2.01598,1.99734 3.36,2.632 1.34398,0.59734 2.91198,0.89601 4.704,0.896 0.97064,10e-6 1.79198,-0.0187 2.464,-0.056 0.70931,-0.0373 1.32531,-0.11199 1.848,-0.224 l 0,-13.496 8.736,0 0,19.208 c -1.04537,0.41067 -2.72536,0.84 -5.04,1.288 -2.31469,0.48534 -5.17069,0.728 -8.568,0.728 -2.91202,0 -5.56268,-0.448 -7.952,-1.344 -2.35201,-0.896 -4.36801,-2.20266 -6.048,-3.92 -1.68,-1.71732 -2.98667,-3.82666 -3.92,-6.328 -0.896,-2.50132 -1.344,-5.35731 -1.344,-8.568 0,-3.24797 0.504,-6.12264 1.512,-8.624 1.008,-2.5013 2.38933,-4.61063 4.144,-6.328 1.75466,-1.75463 3.80799,-3.07996 6.16,-3.976 2.38932,-0.89596 4.92798,-1.34396 7.616,-1.344 1.82931,4e-5 3.47198,0.13071 4.928,0.392 1.49331,0.22404 2.76264,0.50404 3.808,0.84 1.08264,0.29871 1.95997,0.61604 2.632,0.952 0.7093,0.33604 1.2133,0.59737 1.512,0.784 l -2.52,7 c -1.1947,-0.63463 -2.57603,-1.17597 -4.144,-1.624 -1.53069,-0.4853 -3.21069,-0.72797 -5.04,-0.728"
           style="font-size:56px;font-variant:normal;font-weight:bold;font-stretch:normal;fill:#FF6347;font-family:Ubuntu;-inkscape-font-specification:Ubuntu Bold"
           id="path3859"
           inkscape:connector-curvature="0" />
      </g>
    </g>
  </g>
</svg>
