<?xml version="1.0"?>
<svg xmlns="http://www.w3.org/2000/svg" viewBox="0 0 64 64" width="512" height="512"><g id="outline"><path d="M59,56H58V25a9.01,9.01,0,0,0-8-8.941V11a1,1,0,0,0-.293-.707L46,6.586V3a1,1,0,0,0-1-1H32a1,1,0,0,0-1,1V6.586L28.293,9.293A1,1,0,0,0,28,10v6.059A9.01,9.01,0,0,0,20,25v8.586l-2.713-2.713a3.113,3.113,0,0,0-4.994-3.58l-5,5a3.116,3.116,0,0,0,3.448,5.064L20,50.32V56H19a1,1,0,0,0-1,1v4a1,1,0,0,0,1,1H59a1,1,0,0,0,1-1V57A1,1,0,0,0,59,56ZM56,25v9H54V25a5.006,5.006,0,0,0-5-5H46V18h3A7.009,7.009,0,0,1,56,25Zm0,11v3a1,1,0,0,1-2,0V36ZM48,22v1a1,1,0,0,1-1,1H46V22ZM30,10.414l2.707-2.707A1,1,0,0,0,33,7V4H44V7a1,1,0,0,0,.293.707L48,11.414V16H46a2.987,2.987,0,0,0-5-2.22,2.954,2.954,0,0,0-4,0,2.954,2.954,0,0,0-4,0,2.908,2.908,0,0,0-3-.6ZM44,16v9a1,1,0,0,1-2,0V16a1,1,0,0,1,2,0Zm-4,0v9a1,1,0,0,1-2,0V16a1,1,0,0,1,2,0Zm-4,0v9a1,1,0,0,1-2,0V16a1,1,0,0,1,2,0Zm-6,0a1,1,0,0,1,2,0v7a1,1,0,0,1-2,0Zm1,10a2.984,2.984,0,0,0,1.116-.22A2.973,2.973,0,0,0,37,27.22a2.954,2.954,0,0,0,4,0A2.972,2.972,0,0,0,45.816,26H47a3,3,0,0,0,3-3v-.816A3,3,0,0,1,52,25v6.026A4.948,4.948,0,0,0,49,30H29a4.948,4.948,0,0,0-3,1.026V25a3,3,0,0,1,2-2.816V23A3,3,0,0,0,31,26Zm20.829,8H26.171A3.006,3.006,0,0,1,29,32H49A3.006,3.006,0,0,1,51.829,34ZM22,25a7.011,7.011,0,0,1,6-6.929V20.1A5.008,5.008,0,0,0,24,25v9H22Zm0,11h2v3a1,1,0,0,1-2,0Zm0,5.816A2.966,2.966,0,0,0,23,42a3,3,0,0,0,3-3V36H52v3a3,3,0,0,0,3,3,2.966,2.966,0,0,0,1-.184V56H22ZM10.293,35.293a1.144,1.144,0,0,1-1.586,0,1.12,1.12,0,0,1,0-1.584l5-5a1.121,1.121,0,0,1,1.586,1.586Zm2.013.815L16,32.414l4,4V46.88ZM58,60H20V58H58Z"/><path d="M48,38H30a1,1,0,0,0-1,1v4a1,1,0,0,0,1,1H48a1,1,0,0,0,1-1V39A1,1,0,0,0,48,38Zm-1,4H31V40H47Z"/><path d="M52,52H50v2h3a1,1,0,0,0,1-1V46H52Z"/><rect x="46" y="52" width="2" height="2"/><rect x="24" y="52" width="2" height="2"/><rect x="28" y="52" width="2" height="2"/><path d="M8,29V25a3,3,0,0,0-3-3,1,1,0,0,1,0-2H7a3,3,0,0,0,3-3V12H8v5a1,1,0,0,1-1,1H5a3,3,0,0,0,0,6,1,1,0,0,1,1,1v4Z"/><path d="M10,24h1a3,3,0,0,0,3-3V16H12v5a1,1,0,0,1-1,1H10Z"/></g></svg>
